<?xml version="1.0" encoding="UTF-8"?><svg xmlns="http://www.w3.org/2000/svg" viewBox="0 0 2357.42 1333.67"><defs><style>.cls-1{fill:#be8c3d;}.cls-2{fill:#fff;}.cls-3{stroke-width:12px;}.cls-3,.cls-4,.cls-5,.cls-6,.cls-7,.cls-8{fill:none;stroke-miterlimit:10;}.cls-3,.cls-6{stroke:#fff;stroke-linecap:round;}.cls-9{opacity:.78;}.cls-9,.cls-10,.cls-11{fill:#ebb257;}.cls-12{opacity:.43;}.cls-12,.cls-13,.cls-14{fill:#d56852;}.cls-15{fill:#fbfdff;}.cls-16{fill:#b65242;}.cls-4{opacity:.65;stroke:#5f98d3;stroke-width:7px;}.cls-17,.cls-18{opacity:.25;}.cls-17,.cls-19{fill:#1d1d1b;}.cls-20{fill:#5f98d3;}.cls-5{stroke-width:11px;}.cls-5,.cls-7{stroke:#c4ddf0;}.cls-6{stroke-width:9px;}.cls-21{fill:#c9def1;}.cls-10{opacity:.5;}.cls-22{fill:#9c9b9b;opacity:.6;}.cls-23{fill:#eab157;}.cls-24{fill:#d46751;}.cls-25{fill:#5098d3;}.cls-26{fill:#214b6b;}.cls-7,.cls-8{stroke-width:18px;}.cls-27{fill:#c4ddf0;}.cls-14{opacity:.74;}.cls-8{stroke:#ebb257;}</style></defs><g id="Warstwa_3"><path class="cls-18" d="M2264.93,350.46l-157.55-82.55,35.2-167.33c1.71-8.14-3.55-16.21-11.69-17.92l-273.27-57.49c-8.14-1.71-16.21,3.55-17.92,11.69l-172.57,820.25-79.24,151.24c-3.86,7.37-.99,16.56,6.38,20.42l247.36,129.6c7.37,3.86,16.56,.99,20.42-6.38l94.69-180.73c2.1-2.03,3.64-4.68,4.29-7.74l.16-.74,310.12-591.9c3.86-7.37,.99-16.56-6.38-20.42Z"/><g><rect class="cls-2" x="1738.49" y="17.82" width="309.51" height="912.09" rx="12" ry="12" transform="translate(108.32 -315.43) rotate(9.8)"/><rect class="cls-11" x="1823.52" y="57.36" width="256.29" height="156.76" rx="31.2" ry="31.2" transform="translate(51.61 -330.31) rotate(9.8)"/><rect class="cls-9" x="1792.04" y="239.55" width="256.29" height="156.76" rx="31.2" ry="31.2" transform="translate(82.17 -322.29) rotate(9.8)"/><rect class="cls-10" x="1760.56" y="421.73" width="256.29" height="156.76" rx="31.2" ry="31.2" transform="translate(112.73 -314.27) rotate(9.8)"/></g><g><rect class="cls-18" x="1575.44" y="110.76" width="309.51" height="912.09" rx="12" ry="12" transform="translate(-55.55 211.92) rotate(-6.9)"/><rect class="cls-2" x="1546.06" y="79.06" width="309.51" height="912.09" rx="12" ry="12" transform="translate(-51.96 208.16) rotate(-6.9)"/><rect class="cls-20" x="1531.46" y="116.07" width="256.29" height="156.76" rx="31.2" ry="31.2" transform="translate(-11.34 200.75) rotate(-6.9)"/><rect class="cls-9" x="1553.67" y="299.62" width="256.29" height="156.76" rx="31.2" ry="31.2" transform="translate(-33.23 204.74) rotate(-6.9)"/><rect class="cls-10" x="1575.87" y="483.17" width="256.29" height="156.76" rx="31.2" ry="31.2" transform="translate(-55.11 208.74) rotate(-6.9)"/></g><g><rect class="cls-2" x="1774.57" y="206.06" width="309.51" height="912.09" rx="12" ry="12" transform="translate(474.83 -767.98) rotate(25.57)"/><rect class="cls-13" x="1949.3" y="274.21" width="256.29" height="156.76" rx="31.2" ry="31.2" transform="translate(355.73 -862.24) rotate(25.57)"/><rect class="cls-14" x="1869.49" y="440.98" width="256.29" height="156.76" rx="31.2" ry="31.2" transform="translate(419.91 -811.45) rotate(25.57)"/><rect class="cls-12" x="1789.68" y="607.75" width="256.29" height="156.76" rx="31.2" ry="31.2" transform="translate(484.08 -760.66) rotate(25.57)"/></g></g><g id="Warstwa_2"><rect class="cls-18" x="300.44" y="185.54" width="1646.04" height="984.39" rx="39.2" ry="39.2"/><rect class="cls-26" x="283.29" y="160.33" width="1646.04" height="984.39" rx="39.2" ry="39.2"/><g><path class="cls-20" d="M1880.31,1058.55l-12.26,25.7-12.36-23.01-7.88,9.8,6.63,12.14,3.27,6,10.69,19.6h1.61l25.07-50.23h-14.77Z"/><polygon class="cls-20" points="1847.43 1096.01 1840.46 1108.78 1838.76 1108.78 1813.69 1058.55 1828.64 1058.55 1847.43 1096.01"/><line class="cls-20" x1="1847.8" y1="1071.04" x2="1868.4" y2="1108.78"/><circle class="cls-20" cx="1868.57" cy="1049.7" r="8.85"/></g><rect class="cls-2" x="587.89" y="209.75" width="1101.39" height="66.57" rx="26.4" ry="26.4"/><rect class="cls-18" x="184.95" y="84.44" width="597.6" height="597.6" rx="12" ry="12"/><g><path class="cls-26" d="M725.65,243.27v6.28h-3.14v6.35h-6.41v-6.35l-6.25,.04v6.32h-6.37v-6.35l-3.12,.04v-6.32h-3.16v-6.35h6.35v6.32h3.15v6.24l3.11,.04v-3.14h3.15v-3.1h-3.14v-6.35h6.35v6.32h3.14v6.24l3.1,.04v-12.6h6.35v6.35h-3.14Z"/><path class="cls-26" d="M747.7,252.72v3.18h-12.67v-3.18h-3.14v-12.67h3.14v-3.14h12.67v3.14h3.14v3.21h-3.14v3.14h-6.32v3.14h-3.14v3.14h9.38v-3.21h3.21v3.25h-3.14Zm-3.21-12.6h-6.24v6.2h3.1v-3.1h3.14v-3.1Z"/><path class="cls-26" d="M772.93,252.72v3.18h-15.81v-25.3h6.35v6.32h9.46v3.14h3.14v12.67h-3.14Zm-3.21-12.6h-6.24v12.56h6.24v-12.56Z"/><path class="cls-26" d="M788.7,243.27v12.63h-6.35v-18.99h6.35v3.14h3.1v-3.14h3.21v6.35h-6.32Z"/><path class="cls-26" d="M801.26,255.9v-3.18h-3.14v-6.39h3.14v-3.14h9.46v-3.06h-9.46v-3.21h12.67v3.14h3.14v15.85h-15.81Zm9.46-9.49h-6.24v6.28h6.24v-6.28Z"/><path class="cls-26" d="M835.94,255.9v-15.77h-3.1v3.14h-3.14v12.63h-6.35v-18.99h6.35v3.14h3.1v-3.14h6.35v3.14h3.14v15.85h-6.35Z"/><path class="cls-26" d="M861.24,252.72v3.18h-9.53v-3.18h-3.14v-12.67h3.14v-3.14h12.67v6.35h-3.21v-3.14h-6.24v12.56h6.24v-3.21h3.21v3.25h-3.14Z"/><path class="cls-26" d="M886.43,252.72v3.18h-12.67v-3.18h-3.14v-12.67h3.14v-3.14h12.67v3.14h3.14v3.21h-3.14v3.14h-6.32v3.14h-3.14v3.14h9.38v-3.21h3.21v3.25h-3.14Zm-3.21-12.6h-6.24v6.2h3.1v-3.1h3.14v-3.1Z"/><path class="cls-26" d="M895.85,255.9v-6.35h6.35v6.35h-6.35Z"/><path class="cls-26" d="M921.12,252.72v3.18h-9.53v-3.18h-3.14v-12.67h3.14v-3.14h12.67v6.35h-3.21v-3.14h-6.24v12.56h6.24v-3.21h3.21v3.25h-3.14Z"/><path class="cls-26" d="M946.31,252.72v3.18h-12.67v-3.18h-3.14v-12.67h3.14v-3.14h12.67v3.14h3.14v12.67h-3.14Zm-3.21-12.6h-6.24v12.56h6.24v-12.56Z"/><path class="cls-26" d="M980.91,255.9v-15.77h-3.06v3.14h-3.18v12.63h-6.35v-15.77h-3.1v3.14h-3.14v12.63h-6.35v-18.99h6.35v3.14h3.1v-3.14h6.34v3.14h6.23v-3.14h6.34v3.14h3.17v15.85h-6.35Z"/><path class="cls-26" d="M1003.04,236.95v6.28h-3.18v6.32h-3.1v6.35h-3.21v-6.43h3.14v-6.28h3.1v-6.32h3.21v-6.28h3.21v6.35h-3.18Z"/><path class="cls-11" d="M1037.72,243.27v6.28h-3.14v6.35h-6.41v-6.35l-6.25,.04v6.32h-6.37v-6.35l-3.12,.04v-6.32h-3.16v-6.35h6.35v6.32h3.15v6.24l3.11,.04v-3.14h3.15v-3.1h-3.14v-6.35h6.35v6.32h3.14v6.24l3.1,.04v-12.6h6.35v6.35h-3.14Z"/><path class="cls-11" d="M1059.77,252.72v3.18h-12.67v-3.18h-3.14v-12.67h3.14v-3.14h12.67v3.14h3.14v3.21h-3.14v3.14h-6.32v3.14h-3.14v3.14h9.38v-3.21h3.21v3.25h-3.14Zm-3.21-12.6h-6.24v6.2h3.1v-3.1h3.14v-3.1Z"/><path class="cls-11" d="M1069.19,255.9v-25.3h6.35v25.3h-6.35Z"/><path class="cls-11" d="M1094.46,252.72v3.18h-9.53v-3.18h-3.14v-12.67h3.14v-3.14h12.67v6.35h-3.21v-3.14h-6.24v12.56h6.24v-3.21h3.21v3.25h-3.14Z"/><path class="cls-11" d="M1119.65,252.72v3.18h-12.67v-3.18h-3.14v-12.67h3.14v-3.14h12.67v3.14h3.14v12.67h-3.14Zm-3.21-12.6h-6.24v12.56h6.24v-12.56Z"/><path class="cls-11" d="M1154.25,255.9v-15.77h-3.06v3.14h-3.18v12.63h-6.35v-15.77h-3.1v3.14h-3.14v12.63h-6.35v-18.99h6.35v3.14h3.1v-3.14h6.34v3.14h6.23v-3.14h6.34v3.14h3.17v15.85h-6.35Z"/><path class="cls-11" d="M1182.69,252.72v3.18h-12.67v-3.18h-3.14v-12.67h3.14v-3.14h12.67v3.14h3.14v3.21h-3.14v3.14h-6.32v3.14h-3.14v3.14h9.38v-3.21h3.21v3.25h-3.14Zm-3.21-12.6h-6.24v6.2h3.1v-3.1h3.14v-3.1Z"/></g><rect class="cls-21" x="167.3" y="64.51" width="597.6" height="597.6" rx="12" ry="12"/><rect class="cls-15" x="194.75" y="125.61" width="465.51" height="480.64" rx="12" ry="12"/><rect class="cls-18" x="555.05" y="1071.6" width="440.36" height="262.07" rx="12" ry="12"/><rect class="cls-27" x="523.22" y="1039.56" width="440.36" height="262.07" rx="12" ry="12"/><rect class="cls-20" x="559.52" y="1061.16" width="367.77" height="218.87" rx="12" ry="12"/><rect class="cls-18" x="1212.97" y="634.88" width="597.6" height="597.6" rx="12" ry="12"/><path class="cls-20" d="M1351.1,810.68c-18.07,11.76-35.19,23.84-53.36,34.03-4.28,2.4-13.82,.47-17.99-3.01-9.78-8.17-17.75-18.49-26.48-27.92-20.27-21.88-41.4-17.81-53.17,9.95-6.52,15.36-9.94,37.66-21.57,43.67-11.87,6.13-32.09-3.72-48.61-6.83-7.26-1.37-14.4-3.36-24.27-5.71,.91-18.41,1.86-37.1,2.75-55.79,1.06-22.07-19.43-36.26-40.03-27.71-16.75,6.95-33.48,13.97-52.16,21.76-13.76-21.05-27.29-41.74-41.67-63.73,12.15-11.54,23.72-22.69,35.47-33.65,24.5-22.83,21.08-43.08-9.45-55.52-14.88-6.07-29.7-12.27-45.55-18.83,4.53-22.26,8.15-43.46,13.65-64.16,1.13-4.24,9.12-8.96,14.27-9.38,13.41-1.08,27.01,.18,40.54,.37,28.57,.41,40.32-17.35,29.12-43.95-6.53-15.5-13.09-30.98-20.08-47.51,21.23-13.82,42.08-27.39,64.34-41.88,13.31,14.34,26.5,28.74,39.91,42.93,13.55,14.34,37.59,9.87,45.46-8.41,3.73-8.67,6.95-17.57,10.53-26.31,3.57-8.71,7.31-17.36,11.7-27.76,24.33,5.14,48.48,10.25,72.32,15.28,0,20.46-.12,39.9,.03,59.33,.15,19.53,20.45,32.82,38.77,25.65,17.47-6.83,38.89-23.05,51.48-17.88,15.65,6.42,24.06,30.56,35.51,47.1,2.67,3.85,4.98,7.94,7.98,12.76-14.14,13.18-28.02,25.87-41.62,38.86-15.47,14.78-11.31,38.29,8.19,46.55,17.32,7.33,34.78,14.34,53.39,21.99-5.4,25.01-10.6,49.13-15.83,73.38-19.23,0-36.74,.18-54.25-.04-26.18-.34-38.58,17.45-28.65,41.27,6.23,14.94,12.3,29.95,18.37,44.95,.49,1.21,.43,2.63,.96,6.15Zm-158.13-79.31c53.56-.02,98.16-44.11,98.65-97.51,.5-54.08-44.63-98.91-99.42-98.76-54.11,.15-97.84,43.54-98.25,97.48-.41,54.48,44.02,98.81,99.02,98.79Z"/><path class="cls-20" d="M1499.52,511.88c10.11-.25,20.59-.51,30.49-.75q14.34,41.97,49.3,16.68c7.96,7.19,16.22,14.65,24.82,22.41-1.6,3.22-2.6,5.66-3.94,7.9-17.04,28.52-16.98,28.22,15.12,36.64,20.05,5.26,7.74,22.39,11.95,32.9-11.66,5.66-28.26,8.52-31.86,16.95-3.46,8.08,6.56,21.93,11.83,36.5-4.44,5-11.89,13.37-19.03,21.41q-38.98-19.02-47.36,21.99c-10.6,.6-21.75,1.23-32.52,1.84q-14.88-42.28-47.59-17.49c-5.29-4.35-12.49-7.98-16-13.83-3.25-5.4-5.56-14.67-3.08-19.65,13.14-26.36,12.38-28.84-16.04-32.91-3.92-.56-7.8-1.41-12.15-2.21-.6-8.03-2.63-15.63-1.2-22.5,1.08-5.18,5.67-12.09,10.27-13.69,30.85-10.74,31.3-11.43,11.23-38.26-1.2-1.61-2.27-3.32-4.39-6.46,3.48-4.27,7.03-8.94,10.9-13.3,3.51-3.95,7.38-7.58,10.86-11.1q36.12,16.44,48.4-23.05Zm31.84,149.8c23.9-6.45,38.26-31.35,31.78-55.12-6.47-23.72-31.44-37.88-55.37-31.39-24.29,6.59-37.96,30.57-31.38,55.05,6.54,24.33,30.53,38.06,54.97,31.47Z"/><rect class="cls-27" x="1195.32" y="611.17" width="597.6" height="597.6" rx="12" ry="12"/><g><line class="cls-6" x1="1839.5" y1="227.93" x2="1869.55" y2="257.98"/><line class="cls-6" x1="1869.69" y1="228.08" x2="1839.64" y2="258.13"/></g><line class="cls-3" x1="1792.11" y1="243.03" x2="1737.64" y2="243.03"/><g><rect class="cls-19" x="1223.05" y="687.4" width="542.12" height="486.48" rx="12" ry="12"/><rect class="cls-22" x="1256.84" y="728.67" width="21.68" height="21.68"/><rect class="cls-11" x="1296.51" y="728.67" width="156.33" height="21.68"/><rect class="cls-13" x="1330.81" y="781.62" width="246.43" height="21.68"/><rect class="cls-22" x="1444.78" y="834.58" width="129.9" height="21.68"/><rect class="cls-11" x="1296.51" y="887.53" width="129.9" height="21.68"/><rect class="cls-22" x="1338.87" y="939.73" width="181.88" height="21.68"/><rect class="cls-13" x="1426.42" y="993.43" width="181.08" height="21.68"/><rect class="cls-22" x="1446.81" y="887.53" width="198.34" height="21.68"/><rect class="cls-11" x="1474.03" y="728.67" width="103.21" height="21.68"/><rect class="cls-22" x="1256.84" y="781.62" width="21.68" height="21.68"/><rect class="cls-22" x="1256.84" y="834.58" width="21.68" height="21.68"/><rect class="cls-22" x="1256.84" y="887.53" width="21.68" height="21.68"/><rect class="cls-22" x="1256.84" y="940.48" width="21.68" height="21.68"/><rect class="cls-22" x="1256.84" y="993.43" width="21.68" height="21.68"/><rect class="cls-22" x="1428.79" y="1047.13" width="208.97" height="21.68"/><rect class="cls-22" x="1256.84" y="1046.38" width="21.68" height="21.68"/></g><g><path class="cls-26" d="M1238.26,662.14v-3.07h-3.07v-3.07h-3.03v-3h-3.04v-3.11h3.04v-3.07h3.03v-3.03h3.07v-3.03h3.11v3.11h-3.07v3.03h-3.04v3.03h-3.03v3h3.03v3h3.04v3.11h3.07v3.11h-3.11Z"/><path class="cls-26" d="M1259.58,662.14v-15.25h-3v3.03h-3.04v12.21h-6.14v-24.46h6.14v9.14h3v-3.03h6.14v3.03h3.04v15.32h-6.14Z"/><path class="cls-26" d="M1277.93,646.9v15.25h-6.14v-15.25h-3.07v-3.11h3.07v-6.11h6.14v6.11h3.04v3.11h-3.04Z"/><path class="cls-26" d="M1308.32,662.14v-15.25h-2.96v3.03h-3.07v12.21h-6.14v-15.25h-3v3.03h-3.04v12.21h-6.14v-18.35h6.14v3.03h2.99v-3.03h6.13v3.03h6.02v-3.03h6.13v3.03h3.07v15.32h-6.14Z"/><path class="cls-26" d="M1320.53,662.14v-24.46h6.14v24.46h-6.14Z"/><path class="cls-26" d="M1341.88,653v3.03h-3.04v3.03h-3.03v3.07h-3.11v-3.11h3.04v-3.07h3.03v-3.03h3.07v-3h-3.07v-3.03h-3.03v-3.03h-3.04v-3.11h3.11v3.03h3.03v3.03h3.04v3.07h3.07v3.11h-3.07Z"/><path class="cls-26" d="M1347.91,665.18v-3.11h15.32v3.11h-15.32Z"/></g><line class="cls-7" x1="400.02" y1="752.88" x2="878.36" y2="752.88"/><line class="cls-8" x1="400.02" y1="806.84" x2="783.8" y2="806.84"/><line class="cls-4" x1="342.8" y1="711.53" x2="342.8" y2="945.52"/><line class="cls-5" x1="342.8" y1="711.53" x2="342.8" y2="762.46"/><line class="cls-7" x1="400.02" y1="860.8" x2="847.84" y2="860.8"/><line class="cls-7" x1="397.26" y1="914.75" x2="783.8" y2="914.75"/><g><rect class="cls-26" x="840.54" y="118.22" width="7.56" height="7.56"/><path class="cls-26" d="M1373.6,125.78h-15.46v-7.56h15.46v7.56Zm-30.91,0h-15.46v-7.56h15.46v7.56Zm-30.91,0h-15.46v-7.56h15.46v7.56Zm-30.91,0h-15.46v-7.56h15.46v7.56Zm-30.91,0h-15.46v-7.56h15.46v7.56Zm-30.91,0h-15.46v-7.56h15.46v7.56Zm-30.91,0h-15.46v-7.56h15.46v7.56Zm-30.91,0h-15.46v-7.56h15.46v7.56Zm-30.91,0h-15.46v-7.56h15.46v7.56Zm-30.91,0h-15.46v-7.56h15.46v7.56Zm-30.91,0h-15.46v-7.56h15.46v7.56Zm-30.91,0h-15.46v-7.56h15.46v7.56Zm-30.91,0h-15.46v-7.56h15.46v7.56Zm-30.91,0h-15.46v-7.56h15.46v7.56Zm-30.91,0h-15.46v-7.56h15.46v7.56Zm-30.91,0h-15.46v-7.56h15.46v7.56Zm-30.91,0h-15.46v-7.56h15.46v7.56Z"/><rect class="cls-26" x="1389.06" y="118.22" width="7.56" height="7.56"/><circle class="cls-26" cx="841.34" cy="122" r="15.93" transform="translate(.75 249.04) rotate(-16.85)"/><path class="cls-26" d="M1395.83,137.93c8.8,0,15.93-7.13,15.93-15.93s-7.13-15.93-15.93-15.93-15.93,7.13-15.93,15.93,7.13,15.93,15.93,15.93Z"/></g><g><rect class="cls-26" x="280.27" y="1219.48" width="7.56" height="7.56"/><path class="cls-26" d="M449.1,1227.04h-16.13v-7.56h16.13v7.56Zm-32.25,0h-16.13v-7.56h16.13v7.56Zm-32.25,0h-16.13v-7.56h16.13v7.56Zm-32.25,0h-16.13v-7.56h16.13v7.56Zm-32.25,0h-16.13v-7.56h16.13v7.56Z"/><rect class="cls-26" x="465.23" y="1219.48" width="7.56" height="7.56"/><path class="cls-26" d="M281.06,1239.19c-8.8,0-15.93-7.13-15.93-15.93s7.13-15.93,15.93-15.93,15.93,7.13,15.93,15.93-7.13,15.93-15.93,15.93Z"/><path class="cls-26" d="M472,1239.19c8.8,0,15.93-7.13,15.93-15.93s-7.13-15.93-15.93-15.93-15.93,7.13-15.93,15.93,7.13,15.93,15.93,15.93Z"/></g><g><rect class="cls-26" x="1443.1" y="1288.03" width="7.56" height="7.56"/><path class="cls-26" d="M1991.72,1295.59h-15.03v-7.56h15.03v7.56Zm-30.06,0h-15.03v-7.56h15.03v7.56Zm-30.06,0h-15.03v-7.56h15.03v7.56Zm-30.06,0h-15.03v-7.56h15.03v7.56Zm-30.06,0h-15.03v-7.56h15.03v7.56Zm-30.06,0h-15.03v-7.56h15.03v7.56Zm-30.06,0h-15.03v-7.56h15.03v7.56Zm-30.06,0h-15.03v-7.56h15.03v7.56Zm-30.06,0h-15.03v-7.56h15.03v7.56Zm-30.06,0h-15.03v-7.56h15.03v7.56Zm-30.06,0h-15.03v-7.56h15.03v7.56Zm-30.06,0h-15.03v-7.56h15.03v7.56Zm-30.06,0h-15.03v-7.56h15.03v7.56Zm-30.06,0h-15.03v-7.56h15.03v7.56Zm-30.06,0h-15.03v-7.56h15.03v7.56Zm-30.06,0h-15.03v-7.56h15.03v7.56Zm-30.06,0h-15.03v-7.56h15.03v7.56Zm-30.06,0h-15.03v-7.56h15.03v7.56Z"/><rect class="cls-26" x="2006.75" y="1288.03" width="7.56" height="7.56"/><path class="cls-26" d="M1443.9,1307.74c-8.8,0-15.93-7.13-15.93-15.93s7.13-15.93,15.93-15.93,15.93,7.13,15.93,15.93-7.13,15.93-15.93,15.93Z"/></g><g><rect class="cls-26" x="2006.83" y="1097.57" width="7.56" height="7.56"/><path class="cls-26" d="M2014.39,1273.81h-7.56v-14.06h7.56v14.06Zm0-28.11h-7.56v-14.06h7.56v14.06Zm0-28.11h-7.56v-14.06h7.56v14.06Zm0-28.11h-7.56v-14.06h7.56v14.06Zm0-28.11h-7.56v-14.06h7.56v14.06Zm0-28.11h-7.56v-14.06h7.56v14.06Z"/><rect class="cls-26" x="2006.83" y="1287.86" width="7.56" height="7.56"/><path class="cls-26" d="M1994.68,1098.37c0-8.8,7.13-15.93,15.93-15.93s15.93,7.13,15.93,15.93-7.13,15.93-15.93,15.93-15.93-7.13-15.93-15.93Z"/></g><path class="cls-26" d="M536.52,414.52c6.16,0,10.15-1.45,13.41-3.26l-9.42,44.93c-5.44,3.98-15.94,7.24-27.54,7.24-24.64,0-39.13-13.41-42.75-32.61-2.18,2.9-4.71,5.8-7.25,8.7-14.49,14.13-35.51,23.91-58.69,23.91-27.9,0-52.9-12.32-69.2-33.33-11.59-15.58-18.84-36.23-18.84-60.14,0-32.97,12.32-62.68,32.6-83.7,19.21-20.29,46.38-32.61,76.81-32.61s53.99,14.86,64.85,31.88l5.44-26.45h57.97l-29.35,137.32c-2.54,11.96,3.62,18.12,11.96,18.12Zm-59.06-64.85c0-28.62-19.2-46.38-46.38-46.38-14.49,0-28.26,5.8-38.4,15.58-11.6,11.96-18.12,28.98-18.12,48.55,0,12.32,3.26,22.83,9.42,30.44,8.33,10.51,21.38,16.3,36.6,16.3s28.26-5.8,38.41-15.94c11.96-11.96,18.48-28.99,18.48-48.55Z"/><g><rect class="cls-11" x="555.91" y="304.77" width="7.56" height="5.04" transform="translate(137.41 786.21) rotate(-77.36)"/><path class="cls-11" d="M549.58,363.94l-4.92-1.1,2.94-13.1,4.92,1.1-2.94,13.1Zm5.87-26.2l-4.92-1.1,2.94-13.1,4.92,1.1-2.94,13.1Z"/><rect class="cls-11" x="539.57" y="377.66" width="7.56" height="5.04" transform="translate(53.53 827.21) rotate(-77.36)"/><polygon class="cls-11" points="552.44 306.81 565.3 282.24 566.45 309.95 552.44 306.81"/></g><g><path class="cls-25" d="M230.43,465.32h-7.56c-1.04,0-1.89-.85-1.89-1.89s.85-1.89,1.89-1.89h7.56c1.04,0,1.89,.85,1.89,1.89s-.85,1.89-1.89,1.89Z"/><path class="cls-25" d="M582.87,465.32h-14.69c-1.04,0-1.89-.85-1.89-1.89s.85-1.89,1.89-1.89h14.69c1.04,0,1.89,.85,1.89,1.89s-.85,1.89-1.89,1.89Zm-29.37,0h-14.68c-1.04,0-1.89-.85-1.89-1.89s.85-1.89,1.89-1.89h14.68c1.04,0,1.89,.85,1.89,1.89s-.85,1.89-1.89,1.89Zm-29.37,0h-14.69c-1.04,0-1.89-.85-1.89-1.89s.85-1.89,1.89-1.89h14.69c1.04,0,1.89,.85,1.89,1.89s-.85,1.89-1.89,1.89Zm-29.37,0h-14.68c-1.04,0-1.89-.85-1.89-1.89s.85-1.89,1.89-1.89h14.68c1.04,0,1.89,.85,1.89,1.89s-.85,1.89-1.89,1.89Zm-29.37,0h-14.69c-1.04,0-1.89-.85-1.89-1.89s.85-1.89,1.89-1.89h14.69c1.04,0,1.89,.85,1.89,1.89s-.85,1.89-1.89,1.89Zm-29.37,0h-14.68c-1.04,0-1.89-.85-1.89-1.89s.85-1.89,1.89-1.89h14.68c1.04,0,1.89,.85,1.89,1.89s-.85,1.89-1.89,1.89Zm-29.37,0h-14.69c-1.04,0-1.89-.85-1.89-1.89s.85-1.89,1.89-1.89h14.69c1.04,0,1.89,.85,1.89,1.89s-.85,1.89-1.89,1.89Zm-29.37,0h-14.68c-1.04,0-1.89-.85-1.89-1.89s.85-1.89,1.89-1.89h14.68c1.04,0,1.89,.85,1.89,1.89s-.85,1.89-1.89,1.89Zm-29.37,0h-14.69c-1.04,0-1.89-.85-1.89-1.89s.85-1.89,1.89-1.89h14.69c1.04,0,1.89,.85,1.89,1.89s-.85,1.89-1.89,1.89Zm-29.37,0h-14.68c-1.04,0-1.89-.85-1.89-1.89s.85-1.89,1.89-1.89h14.68c1.04,0,1.89,.85,1.89,1.89s-.85,1.89-1.89,1.89Zm-29.37,0h-14.69c-1.04,0-1.89-.85-1.89-1.89s.85-1.89,1.89-1.89h14.69c1.04,0,1.89,.85,1.89,1.89s-.85,1.89-1.89,1.89Zm-29.37,0h-14.68c-1.04,0-1.89-.85-1.89-1.89s.85-1.89,1.89-1.89h14.68c1.04,0,1.89,.85,1.89,1.89s-.85,1.89-1.89,1.89Z"/><path class="cls-25" d="M605.11,465.32h-7.56c-1.04,0-1.89-.85-1.89-1.89s.85-1.89,1.89-1.89h7.56c1.04,0,1.89,.85,1.89,1.89s-.85,1.89-1.89,1.89Z"/></g><g><path class="cls-25" d="M377.14,164.76c-1.04,0-1.89-.85-1.89-1.89v-7.56c0-1.04,.85-1.89,1.89-1.89s1.89,.85,1.89,1.89v7.56c0,1.04-.85,1.89-1.89,1.89Z"/><path class="cls-25" d="M377.14,510.31c-1.04,0-1.89-.85-1.89-1.89v-15.71c0-1.04,.85-1.89,1.89-1.89s1.89,.85,1.89,1.89v15.71c0,1.04-.85,1.89-1.89,1.89Zm0-31.41c-1.04,0-1.89-.85-1.89-1.89v-15.71c0-1.04,.85-1.89,1.89-1.89s1.89,.85,1.89,1.89v15.71c0,1.04-.85,1.89-1.89,1.89Zm0-31.41c-1.04,0-1.89-.85-1.89-1.89v-15.71c0-1.04,.85-1.89,1.89-1.89s1.89,.85,1.89,1.89v15.71c0,1.04-.85,1.89-1.89,1.89Zm0-31.41c-1.04,0-1.89-.85-1.89-1.89v-15.71c0-1.04,.85-1.89,1.89-1.89s1.89,.85,1.89,1.89v15.71c0,1.04-.85,1.89-1.89,1.89Zm0-31.41c-1.04,0-1.89-.85-1.89-1.89v-15.71c0-1.04,.85-1.89,1.89-1.89s1.89,.85,1.89,1.89v15.71c0,1.04-.85,1.89-1.89,1.89Zm0-31.41c-1.04,0-1.89-.85-1.89-1.89v-15.71c0-1.04,.85-1.89,1.89-1.89s1.89,.85,1.89,1.89v15.71c0,1.04-.85,1.89-1.89,1.89Zm0-31.41c-1.04,0-1.89-.85-1.89-1.89v-15.71c0-1.04,.85-1.89,1.89-1.89s1.89,.85,1.89,1.89v15.71c0,1.04-.85,1.89-1.89,1.89Zm0-31.41c-1.04,0-1.89-.85-1.89-1.89v-15.71c0-1.04,.85-1.89,1.89-1.89s1.89,.85,1.89,1.89v15.71c0,1.04-.85,1.89-1.89,1.89Zm0-31.41c-1.04,0-1.89-.85-1.89-1.89v-15.71c0-1.04,.85-1.89,1.89-1.89s1.89,.85,1.89,1.89v15.71c0,1.04-.85,1.89-1.89,1.89Zm0-31.41c-1.04,0-1.89-.85-1.89-1.89v-15.71c0-1.04,.85-1.89,1.89-1.89s1.89,.85,1.89,1.89v15.71c0,1.04-.85,1.89-1.89,1.89Zm0-31.41c-1.04,0-1.89-.85-1.89-1.89v-15.71c0-1.04,.85-1.89,1.89-1.89s1.89,.85,1.89,1.89v15.71c0,1.04-.85,1.89-1.89,1.89Z"/><path class="cls-25" d="M377.14,533.59c-1.04,0-1.89-.85-1.89-1.89v-7.56c0-1.04,.85-1.89,1.89-1.89s1.89,.85,1.89,1.89v7.56c0,1.04-.85,1.89-1.89,1.89Z"/></g><g><path class="cls-25" d="M571.13,189.13c-.13,0-.26-.01-.4-.04-1.02-.22-1.67-1.22-1.46-2.24l1.57-7.4c.22-1.02,1.22-1.68,2.24-1.46,1.02,.22,1.67,1.22,1.46,2.24l-1.57,7.4c-.19,.89-.97,1.5-1.85,1.5Z"/><path class="cls-25" d="M504.31,503.47c-.13,0-.26-.01-.4-.04-1.02-.22-1.67-1.22-1.46-2.24l3.04-14.29c.22-1.02,1.22-1.68,2.24-1.46,1.02,.22,1.67,1.22,1.46,2.24l-3.04,14.29c-.19,.89-.97,1.5-1.85,1.5Zm6.07-28.58c-.13,0-.26-.01-.4-.04-1.02-.22-1.67-1.22-1.46-2.24l3.04-14.29c.22-1.02,1.22-1.68,2.24-1.46,1.02,.22,1.67,1.22,1.46,2.24l-3.04,14.29c-.19,.89-.97,1.5-1.85,1.5Zm6.07-28.58c-.13,0-.26-.01-.4-.04-1.02-.22-1.67-1.22-1.46-2.24l3.04-14.29c.22-1.02,1.22-1.68,2.24-1.46,1.02,.22,1.67,1.22,1.46,2.24l-3.04,14.29c-.19,.89-.97,1.5-1.85,1.5Zm6.07-28.58c-.13,0-.26-.01-.4-.04-1.02-.22-1.67-1.22-1.46-2.24l3.04-14.29c.22-1.02,1.22-1.67,2.24-1.46,1.02,.22,1.67,1.22,1.46,2.24l-3.04,14.29c-.19,.89-.97,1.5-1.85,1.5Zm6.07-28.58c-.13,0-.26-.01-.4-.04-1.02-.22-1.67-1.22-1.46-2.24l3.04-14.29c.22-1.02,1.22-1.67,2.24-1.46,1.02,.22,1.67,1.22,1.46,2.24l-3.04,14.29c-.19,.89-.97,1.5-1.85,1.5Zm6.07-28.58c-.13,0-.26-.01-.4-.04-1.02-.22-1.67-1.22-1.46-2.24l3.04-14.29c.22-1.02,1.22-1.67,2.24-1.46,1.02,.22,1.67,1.22,1.46,2.24l-3.04,14.29c-.19,.89-.97,1.5-1.85,1.5Zm6.07-28.58c-.13,0-.26-.01-.4-.04-1.02-.22-1.67-1.22-1.46-2.24l3.04-14.29c.22-1.02,1.22-1.68,2.24-1.46,1.02,.22,1.67,1.22,1.46,2.24l-3.04,14.29c-.19,.89-.97,1.5-1.85,1.5Zm6.07-28.58c-.13,0-.26-.01-.4-.04-1.02-.22-1.67-1.22-1.46-2.24l3.04-14.29c.22-1.02,1.22-1.67,2.24-1.46,1.02,.22,1.67,1.22,1.46,2.24l-3.04,14.29c-.19,.89-.97,1.5-1.85,1.5Zm6.07-28.58c-.13,0-.26-.01-.4-.04-1.02-.22-1.67-1.22-1.46-2.24l3.04-14.29c.22-1.02,1.22-1.68,2.24-1.46,1.02,.22,1.67,1.22,1.46,2.24l-3.04,14.29c-.19,.89-.97,1.5-1.85,1.5Zm6.07-28.58c-.13,0-.26-.01-.4-.04-1.02-.22-1.67-1.22-1.46-2.24l3.04-14.29c.22-1.02,1.22-1.68,2.24-1.46,1.02,.22,1.67,1.22,1.46,2.24l-3.04,14.29c-.19,.89-.97,1.5-1.85,1.5Zm6.07-28.58c-.13,0-.26-.01-.4-.04-1.02-.22-1.67-1.22-1.46-2.24l3.04-14.29c.22-1.02,1.22-1.68,2.24-1.46,1.02,.22,1.67,1.22,1.46,2.24l-3.04,14.29c-.19,.89-.97,1.5-1.85,1.5Z"/><path class="cls-25" d="M499.7,525.16c-.13,0-.26-.01-.4-.04-1.02-.22-1.67-1.22-1.46-2.24l1.57-7.4c.22-1.02,1.22-1.67,2.24-1.46,1.02,.22,1.67,1.22,1.46,2.24l-1.57,7.4c-.19,.89-.97,1.5-1.85,1.5Z"/></g><g><path class="cls-25" d="M519.44,157.71c-.13,0-.27-.01-.41-.04-1.02-.23-1.66-1.23-1.44-2.25l1.63-7.39c.22-1.02,1.23-1.67,2.25-1.44,1.02,.23,1.66,1.23,1.44,2.25l-1.63,7.39c-.19,.88-.98,1.48-1.84,1.48Z"/><path class="cls-25" d="M427.4,574.91c-.13,0-.27-.01-.41-.04-1.02-.23-1.66-1.23-1.44-2.25l3.29-14.9c.22-1.02,1.23-1.67,2.25-1.44,1.02,.23,1.66,1.23,1.44,2.25l-3.29,14.9c-.19,.88-.98,1.48-1.84,1.48Zm6.57-29.8c-.13,0-.27-.01-.41-.04-1.02-.23-1.66-1.23-1.44-2.25l3.29-14.9c.22-1.02,1.23-1.66,2.25-1.44,1.02,.23,1.66,1.23,1.44,2.25l-3.29,14.9c-.19,.88-.98,1.48-1.84,1.48Zm6.57-29.8c-.13,0-.27-.01-.41-.04-1.02-.23-1.66-1.23-1.44-2.25l3.29-14.9c.22-1.02,1.23-1.67,2.25-1.44,1.02,.23,1.66,1.23,1.44,2.25l-3.29,14.9c-.19,.88-.98,1.48-1.84,1.48Zm6.57-29.8c-.13,0-.27-.01-.41-.04-1.02-.23-1.66-1.23-1.44-2.25l3.29-14.9c.22-1.02,1.23-1.66,2.25-1.44,1.02,.23,1.66,1.23,1.44,2.25l-3.29,14.9c-.19,.88-.98,1.48-1.84,1.48Zm6.57-29.8c-.13,0-.27-.01-.41-.04-1.02-.23-1.66-1.23-1.44-2.25l3.29-14.9c.22-1.02,1.23-1.66,2.25-1.44,1.02,.23,1.66,1.23,1.44,2.25l-3.29,14.9c-.19,.88-.98,1.48-1.84,1.48Zm6.57-29.8c-.13,0-.27-.01-.41-.04-1.02-.23-1.66-1.23-1.44-2.25l3.29-14.9c.22-1.02,1.23-1.66,2.25-1.44,1.02,.23,1.66,1.23,1.44,2.25l-3.29,14.9c-.2,.88-.98,1.48-1.84,1.48Zm6.57-29.8c-.13,0-.27-.01-.41-.04-1.02-.23-1.66-1.23-1.44-2.25l3.29-14.9c.23-1.02,1.23-1.66,2.25-1.44,1.02,.23,1.66,1.23,1.44,2.25l-3.29,14.9c-.19,.88-.98,1.48-1.84,1.48Zm6.57-29.8c-.13,0-.27-.01-.41-.04-1.02-.23-1.66-1.23-1.44-2.25l3.29-14.9c.22-1.02,1.23-1.67,2.25-1.44,1.02,.23,1.66,1.23,1.44,2.25l-3.29,14.9c-.19,.88-.98,1.48-1.84,1.48Zm6.57-29.8c-.13,0-.27-.01-.41-.04-1.02-.23-1.66-1.23-1.44-2.25l3.29-14.9c.22-1.02,1.23-1.67,2.25-1.44,1.02,.23,1.66,1.23,1.44,2.25l-3.29,14.9c-.19,.88-.98,1.48-1.84,1.48Zm6.57-29.8c-.13,0-.27-.01-.41-.04-1.02-.23-1.66-1.23-1.44-2.25l3.29-14.9c.22-1.02,1.23-1.67,2.25-1.44,1.02,.23,1.66,1.23,1.44,2.25l-3.29,14.9c-.19,.88-.98,1.48-1.84,1.48Zm6.57-29.8c-.13,0-.27-.01-.41-.04-1.02-.23-1.66-1.23-1.44-2.25l3.29-14.9c.22-1.02,1.23-1.67,2.25-1.44,1.02,.23,1.66,1.23,1.44,2.25l-3.29,14.9c-.19,.88-.98,1.48-1.84,1.48Zm6.57-29.8c-.13,0-.27-.01-.41-.04-1.02-.23-1.66-1.23-1.44-2.25l3.29-14.9c.22-1.02,1.23-1.67,2.25-1.44,1.02,.23,1.66,1.23,1.44,2.25l-3.29,14.9c-.2,.88-.98,1.48-1.84,1.48Zm6.57-29.8c-.13,0-.27-.01-.41-.04-1.02-.23-1.66-1.23-1.44-2.25l3.29-14.9c.23-1.02,1.23-1.67,2.25-1.44,1.02,.23,1.66,1.23,1.44,2.25l-3.29,14.9c-.19,.88-.98,1.48-1.84,1.48Zm6.57-29.8c-.13,0-.27-.01-.41-.04-1.02-.23-1.66-1.23-1.44-2.25l3.29-14.9c.22-1.02,1.23-1.66,2.25-1.44,1.02,.23,1.66,1.23,1.44,2.25l-3.29,14.9c-.19,.88-.98,1.48-1.84,1.48Z"/><path class="cls-25" d="M422.48,597.19c-.13,0-.27-.01-.41-.04-1.02-.23-1.66-1.23-1.44-2.25l1.63-7.39c.23-1.02,1.23-1.67,2.25-1.44,1.02,.23,1.66,1.23,1.44,2.25l-1.63,7.39c-.2,.88-.98,1.48-1.84,1.48Z"/></g><g><path class="cls-25" d="M638.23,257.75h-7.56c-1.04,0-1.89-.85-1.89-1.89s.85-1.89,1.89-1.89h7.56c1.04,0,1.89,.85,1.89,1.89s-.85,1.89-1.89,1.89Z"/><path class="cls-25" d="M615.5,257.75h-15.16c-1.04,0-1.89-.85-1.89-1.89s.85-1.89,1.89-1.89h15.16c1.04,0,1.89,.85,1.89,1.89s-.85,1.89-1.89,1.89Zm-30.32,0h-15.16c-1.04,0-1.89-.85-1.89-1.89s.85-1.89,1.89-1.89h15.16c1.04,0,1.89,.85,1.89,1.89s-.85,1.89-1.89,1.89Zm-30.32,0h-15.16c-1.04,0-1.89-.85-1.89-1.89s.85-1.89,1.89-1.89h15.16c1.04,0,1.89,.85,1.89,1.89s-.85,1.89-1.89,1.89Zm-30.32,0h-15.16c-1.04,0-1.89-.85-1.89-1.89s.85-1.89,1.89-1.89h15.16c1.04,0,1.89,.85,1.89,1.89s-.85,1.89-1.89,1.89Zm-30.32,0h-15.16c-1.04,0-1.89-.85-1.89-1.89s.85-1.89,1.89-1.89h15.16c1.04,0,1.89,.85,1.89,1.89s-.85,1.89-1.89,1.89Zm-30.32,0h-15.16c-1.04,0-1.89-.85-1.89-1.89s.85-1.89,1.89-1.89h15.16c1.04,0,1.89,.85,1.89,1.89s-.85,1.89-1.89,1.89Zm-30.32,0h-15.16c-1.04,0-1.89-.85-1.89-1.89s.85-1.89,1.89-1.89h15.16c1.04,0,1.89,.85,1.89,1.89s-.85,1.89-1.89,1.89Zm-30.32,0h-15.16c-1.04,0-1.89-.85-1.89-1.89s.85-1.89,1.89-1.89h15.16c1.04,0,1.89,.85,1.89,1.89s-.85,1.89-1.89,1.89Zm-30.32,0h-15.16c-1.04,0-1.89-.85-1.89-1.89s.85-1.89,1.89-1.89h15.16c1.04,0,1.89,.85,1.89,1.89s-.85,1.89-1.89,1.89Zm-30.32,0h-15.16c-1.04,0-1.89-.85-1.89-1.89s.85-1.89,1.89-1.89h15.16c1.04,0,1.89,.85,1.89,1.89s-.85,1.89-1.89,1.89Zm-30.32,0h-15.16c-1.04,0-1.89-.85-1.89-1.89s.85-1.89,1.89-1.89h15.16c1.04,0,1.89,.85,1.89,1.89s-.85,1.89-1.89,1.89Zm-30.32,0h-15.16c-1.04,0-1.89-.85-1.89-1.89s.85-1.89,1.89-1.89h15.16c1.04,0,1.89,.85,1.89,1.89s-.85,1.89-1.89,1.89Zm-30.32,0h-15.16c-1.04,0-1.89-.85-1.89-1.89s.85-1.89,1.89-1.89h15.16c1.04,0,1.89,.85,1.89,1.89s-.85,1.89-1.89,1.89Z"/><path class="cls-25" d="M221.37,257.75h-7.56c-1.04,0-1.89-.85-1.89-1.89s.85-1.89,1.89-1.89h7.56c1.04,0,1.89,.85,1.89,1.89s-.85,1.89-1.89,1.89Z"/></g><g><path class="cls-25" d="M316.24,226.8c-1.04,0-1.89-.85-1.89-1.89v-7.56c0-1.04,.85-1.89,1.89-1.89s1.89,.85,1.89,1.89v7.56c0,1.04-.85,1.89-1.89,1.89Z"/><path class="cls-25" d="M316.24,539.95c-1.04,0-1.89-.85-1.89-1.89v-15.66c0-1.04,.85-1.89,1.89-1.89s1.89,.85,1.89,1.89v15.66c0,1.04-.85,1.89-1.89,1.89Zm0-31.31c-1.04,0-1.89-.85-1.89-1.89v-15.66c0-1.04,.85-1.89,1.89-1.89s1.89,.85,1.89,1.89v15.66c0,1.04-.85,1.89-1.89,1.89Zm0-31.31c-1.04,0-1.89-.85-1.89-1.89v-15.66c0-1.04,.85-1.89,1.89-1.89s1.89,.85,1.89,1.89v15.66c0,1.04-.85,1.89-1.89,1.89Zm0-31.31c-1.04,0-1.89-.85-1.89-1.89v-15.66c0-1.04,.85-1.89,1.89-1.89s1.89,.85,1.89,1.89v15.66c0,1.04-.85,1.89-1.89,1.89Zm0-31.31c-1.04,0-1.89-.85-1.89-1.89v-15.66c0-1.04,.85-1.89,1.89-1.89s1.89,.85,1.89,1.89v15.66c0,1.04-.85,1.89-1.89,1.89Zm0-31.31c-1.04,0-1.89-.85-1.89-1.89v-15.66c0-1.04,.85-1.89,1.89-1.89s1.89,.85,1.89,1.89v15.66c0,1.04-.85,1.89-1.89,1.89Zm0-31.31c-1.04,0-1.89-.85-1.89-1.89v-15.66c0-1.04,.85-1.89,1.89-1.89s1.89,.85,1.89,1.89v15.66c0,1.04-.85,1.89-1.89,1.89Zm0-31.31c-1.04,0-1.89-.85-1.89-1.89v-15.66c0-1.04,.85-1.89,1.89-1.89s1.89,.85,1.89,1.89v15.66c0,1.04-.85,1.89-1.89,1.89Zm0-31.31c-1.04,0-1.89-.85-1.89-1.89v-15.66c0-1.04,.85-1.89,1.89-1.89s1.89,.85,1.89,1.89v15.66c0,1.04-.85,1.89-1.89,1.89Zm0-31.31c-1.04,0-1.89-.85-1.89-1.89v-15.66c0-1.04,.85-1.89,1.89-1.89s1.89,.85,1.89,1.89v15.66c0,1.04-.85,1.89-1.89,1.89Z"/><path class="cls-25" d="M316.24,563.17c-1.04,0-1.89-.85-1.89-1.89v-7.56c0-1.04,.85-1.89,1.89-1.89s1.89,.85,1.89,1.89v7.56c0,1.04-.85,1.89-1.89,1.89Z"/></g><rect id="Rectangle_4" class="cls-26" x="684.05" y="210.02" width="53.78" height="53.78" rx="26.89" ry="26.89"/><rect id="Rectangle_6" class="cls-13" x="684.05" y="129.35" width="53.78" height="53.78" rx="26.89" ry="26.89"/><rect id="Rectangle_7" class="cls-11" x="684.05" y="290.69" width="53.78" height="53.78" rx="26.89" ry="26.89"/><g><path class="cls-11" d="M312.08,267.08l-4.49-2.31c2.21-4.29,3.61-6.68,3.67-6.78l4.34,2.56s-1.4,2.37-3.53,6.52Z"/><path class="cls-11" d="M295.44,424.66c-2.73-4.84-5.1-9.97-7.06-15.24l4.73-1.76c1.87,5.03,4.13,9.92,6.73,14.53l-4.39,2.47Zm-11.73-31.36c-1.13-5.32-1.94-10.9-2.39-16.57l5.03-.4c.44,5.45,1.21,10.81,2.3,15.92l-4.93,1.05Zm2.27-33.1l-5.04-.16c.18-5.39,.63-10.98,1.36-16.6l5,.65c-.71,5.47-1.15,10.89-1.32,16.12Zm4.09-32.1l-4.93-1.06c1.13-5.28,2.51-10.69,4.08-16.1l4.84,1.41c-1.54,5.29-2.89,10.59-3.99,15.75Zm9.06-31.2l-4.74-1.72c1.87-5.15,3.94-10.34,6.14-15.41l4.63,2.01c-2.16,4.98-4.18,10.06-6.02,15.12Z"/><path class="cls-11" d="M309.84,444.52c-1.74-1.91-3.43-3.89-5.02-5.9l3.95-3.13c1.52,1.91,3.13,3.81,4.79,5.63l-3.73,3.4Z"/><polygon class="cls-11" points="303.27 444.56 328.27 457.81 313.24 433.83 303.27 444.56"/></g><g><path class="cls-11" d="M396.76,331.05l-3.53-3.6c.09-.09,2.35-2.29,6.17-5.01l2.93,4.11c-3.47,2.47-5.55,4.49-5.57,4.51Z"/><path class="cls-11" d="M409.97,321.89l-2.29-4.5c3.01-1.53,6.06-2.76,9.06-3.66l1.44,4.83c-2.71,.81-5.48,1.92-8.22,3.32Z"/><path class="cls-11" d="M433.77,317.37c-2.27-.37-4.63-.49-7-.35l-.29-5.03c2.74-.16,5.46-.02,8.1,.41l-.81,4.98Z"/><polygon class="cls-11" points="426.17 320.04 454 325.21 432.49 306.82 426.17 320.04"/></g><path class="cls-17" d="M1017.73,593.58c-68.09,27.9-93.8-14.99-143.4-3.54-36.65,8.46-57.09,32.14-70.51,52.16,0,0,1.67,.35,4.26,2.2-2.56-1.59-4.26-2.2-4.26-2.2-6.32-1.12-13-.72-19.5,1.51L128.07,883.61c-20.47,7-38.71,16.34-31.71,36.81,7.01,20.47,24.67,18.62,45.15,11.61l668.16-214.19c10.28-3.52,22.64-9.86,22.54-19.92,20.88-9.47,51.65,5.26,89.95-7.53,46.55-15.55,127.34-109.84,95.56-96.83Z"/><g><path class="cls-23" d="M827.33,614.22c-38.3,12.78-69.08-1.94-89.95,7.53-9.64-51.89-28.39-55.74-28.39-55.74,13.43-20.02,33.86-43.7,70.51-52.16,49.6-11.45,75.3,31.44,143.4,3.54,31.77-13.01-49.02,81.28-95.56,96.83Z"/><path class="cls-24" d="M737.37,621.75c.1,10.06-12.27,16.4-22.54,19.92L46.67,855.86c-20.47,7.01-38.14,8.86-45.15-11.61-7-20.47,11.23-29.82,31.71-36.81l656.25-239.91c6.51-2.23,13.19-2.64,19.5-1.51,0,0,27.96,9.97,28.39,55.74Z"/><path class="cls-16" d="M737.39,621.68c.1,10.06-12.27,16.4-22.54,19.92L46.68,855.79c-18.58,6.35-34.85,8.47-42.93-6.49l732.33-234.31s.34-.14,.98-.4c0,0,.37,5.86,.32,7.1Z"/><path class="cls-1" d="M827.34,614.15c-38.3,12.78-69.08-1.94-89.95,7.53,.05-1.24-.32-7.1-.32-7.1,6.51-2.65,43.79-17.4,64.9-17.08,23.2,.34,87.75-30.26,127.55-80.78,7.55,7.64-60.83,83.61-102.18,97.43Z"/></g><path class="cls-2" d="M697.71,1170.59v-49.08c0-2.45,2.65-3.98,4.77-2.75l42.51,24.54,42.51,24.54c2.12,1.22,2.12,4.28,0,5.51l-42.51,24.54-42.51,24.54c-2.12,1.22-4.77-.31-4.77-2.75v-49.08Z"/></g></svg>