<svg xmlns="http://www.w3.org/2000/svg" width="30.563" height="30.556" viewBox="0 0 30.563 30.556">
  <defs>
    <style>
      .cls-1 {
        fill: #fff;
        opacity: 0.7;
      }
    </style>
  </defs>
  <path id="Icon_awesome-instagram" data-name="Icon awesome-instagram" class="cls-1" d="M15.279,9.681a7.834,7.834,0,1,0,7.834,7.834A7.822,7.822,0,0,0,15.279,9.681Zm0,12.927a5.093,5.093,0,1,1,5.093-5.093,5.1,5.1,0,0,1-5.093,5.093ZM25.261,9.361a1.827,1.827,0,1,1-1.827-1.827A1.823,1.823,0,0,1,25.261,9.361Zm5.189,1.855a9.043,9.043,0,0,0-2.468-6.4,9.1,9.1,0,0,0-6.4-2.468C19.057,2.2,11.5,2.2,8.973,2.345a9.089,9.089,0,0,0-6.4,2.461A9.072,9.072,0,0,0,.1,11.209c-.143,2.523-.143,10.084,0,12.607a9.043,9.043,0,0,0,2.468,6.4,9.114,9.114,0,0,0,6.4,2.468c2.523.143,10.084.143,12.607,0a9.043,9.043,0,0,0,6.4-2.468,9.1,9.1,0,0,0,2.468-6.4c.143-2.523.143-10.077,0-12.6ZM27.191,26.522a5.156,5.156,0,0,1-2.9,2.9c-2.011.8-6.784.614-9.007.614s-7,.177-9.007-.614a5.156,5.156,0,0,1-2.9-2.9c-.8-2.011-.614-6.784-.614-9.007s-.177-7,.614-9.007a5.156,5.156,0,0,1,2.9-2.9c2.011-.8,6.784-.614,9.007-.614s7-.177,9.007.614a5.156,5.156,0,0,1,2.9,2.9c.8,2.011.614,6.784.614,9.007S27.989,24.518,27.191,26.522Z" transform="translate(0.005 -2.238)"/>
</svg>
