<?xml version="1.0" encoding="utf-8"?>
<!-- Generator: Adobe Illustrator 26.3.1, SVG Export Plug-In . SVG Version: 6.00 Build 0)  -->
<svg version="1.1" id="Warstwa_1" xmlns="http://www.w3.org/2000/svg" xmlns:xlink="http://www.w3.org/1999/xlink" x="0px" y="0px"
	 viewBox="0 0 1920 1920" style="enable-background:new 0 0 1920 1920;" xml:space="preserve">
<style type="text/css">
	.st0{fill:#fff;}
	.st1{fill:none;}
</style>
<g>
	<g>
		<path class="st0" d="M372.8,904.6l-44.4,92.9l-44.7-83.2l-28.5,35.4l24,43.9l11.8,21.7l38.7,70.9h5.8l90.7-181.7H372.8z"/>
		<polygon class="st0" points="253.9,1040.1 228.7,1086.3 222.6,1086.3 131.9,904.6 186,904.6 		"/>
		<path class="st0" d="M609.6,986.9c0-53.4-36.9-87.4-85.2-87.4c-52.1,0-91,41.4-91,93.9c0,55.7,40.2,93.9,101.7,93.9
			c23.3,0,47-3.6,64.1-13.9l-0.6-43.1c-13.3,7.1-32.1,13-57.3,13c-32.1,0-51.5-13-57-37.2h123.4
			C608.6,1001.8,609.6,995.3,609.6,986.9z M484.3,976.5c4.5-20.7,19.4-34,39.8-34c21.4,0,36.3,13,37.6,34H484.3z"/>
		<path class="st0" d="M755.7,899.5c-24.3,0-42.1,9.4-54.1,23.3v-93.3h-51.8v159c0,56.4,37.9,98.8,94.9,98.8
			c54.7,0,96.5-42.7,96.5-97.2C841.1,938.3,803.6,899.5,755.7,899.5z M745.3,1041.3c-26.5,0-45-21-45-47.6c0-27.2,18.8-47.9,45-47.9
			c25.6,0,43.7,20.7,43.7,47.6C789,1019.9,770.9,1041.3,745.3,1041.3z"/>
		<path class="st0" d="M993,899.5c-26.6,0-48.6,15.2-57,39.5v-34.3h-49.9v177.5h55.7v-85.8c0-30.4,20.1-45.7,46-45.7
			c9.1,0,16.5,2.3,22.3,4.9v-53.8C1005.7,900.4,999.2,899.5,993,899.5z"/>
		<path class="st0" d="M1215.2,1041.3c-7.1,0-13.9-4.8-13.9-15.2V960c0-37.6-24.6-60.6-80.3-60.6c-31.1,0-62.5,10.7-81,20.4v49.9
			c20.4-12.3,50.2-24,79.3-24c22.7,0,31.1,7.4,31.1,15.9c0,3.2-1,5.8-3.2,8.4c-7.8,7.8-28.8,10-50.2,14.6
			c-19.7,3.9-40.5,9.4-53.1,22c-7.8,7.8-12.6,18.1-12.6,32.4c0.3,28.5,22,48.3,54.7,48.3c25.6,0,47-11.3,59.6-24.6
			c3.6-3.6,6.5-7.8,8.4-11.7c2.6,22,19.8,36.3,44.4,36.3c10.7,0,22.7-2.9,28.2-6.5v-42.4C1224,1040,1220.4,1041.3,1215.2,1041.3z
			 M1137.8,1036.8c-9.1,9.1-20.4,14.3-32.1,14.3c-11.7,0-20.1-6.5-20.1-16.2c0-4.8,1.6-8.4,4.8-11.7c6.8-7.1,20.7-9.7,34.7-12.6
			c11.7-2.6,22.7-5.5,29.5-11C1153.7,1014.1,1147.2,1027.4,1137.8,1036.8z"/>
		<path class="st0" d="M1375.8,899.5c-28.5,0-51.5,14.9-61.9,33.4v-28.2h-52.8v177.5h55.7v-94.2c0-26.6,16.5-43.7,38.9-43.7
			c21.7,0,34.3,14.9,34.3,40.2v97.8h55.7V971C1445.8,926.7,1418.3,899.5,1375.8,899.5z"/>
		<path class="st0" d="M1596.4,1040.3c-33.7,0-53.4-20.4-53.4-47.3c0-25.9,19.8-46.3,53.4-46.3c15.5,0,26.9,3.9,33.4,7.1l0.6-46.6
			c-9.4-4.5-24.6-7.8-38.9-7.8c-61.2,0-102,41.8-102,93.6c0,52.8,40.5,94.2,101.7,94.2c14.6,0,30.1-3.2,39.2-7.8l-0.6-46.3
			C1623.3,1036.1,1611.9,1040.3,1596.4,1040.3z"/>
		<path class="st0" d="M1839.6,986.9c0-53.4-36.9-87.4-85.2-87.4c-52.1,0-91,41.4-91,93.9c0,55.7,40.2,93.9,101.7,93.9
			c23.3,0,47-3.6,64.1-13.9l-0.7-43.1c-13.3,7.1-32.1,13-57.3,13c-32.1,0-51.5-13-57-37.2h123.4
			C1838.6,1001.8,1839.6,995.3,1839.6,986.9z M1714.3,976.5c4.5-20.7,19.4-34,39.8-34c21.4,0,36.3,13,37.6,34H1714.3z"/>
		<line class="st1" x1="255.3" y1="949.8" x2="329.8" y2="1086.3"/>
		<circle class="st0" cx="330.4" cy="872.6" r="32"/>
	</g>
</g>
</svg>
