<svg xmlns="http://www.w3.org/2000/svg" xmlns:xlink="http://www.w3.org/1999/xlink" width="599" height="304" viewBox="0 0 599 304">
  <defs>
    <style>
      .cls-1, .cls-5 {
        fill: #fff;
      }

      .cls-1 {
        stroke: #707070;
      }

      .cls-2 {
        clip-path: url(#clip-path);
      }

      .cls-3, .cls-4, .cls-6 {
        fill: #5098d3;
      }

      .cls-12, .cls-3 {
        opacity: 0.14;
      }

      .cls-6 {
        font-size: 6px;
        font-family: Ubuntu-Bold, Ubuntu;
        font-weight: 700;
      }

      .cls-7 {
        letter-spacing: 0.03em;
      }

      .cls-8 {
        fill: #ebb257;
      }

      .cls-9 {
        fill: #ebb256;
      }

      .cls-10 {
        fill: #d56852;
      }

      .cls-11 {
        fill: #214b6b;
      }

      .cls-12 {
        fill: #5099d4;
      }

      .cls-13 {
        fill: #214a6a;
      }

      .cls-14 {
        fill: #3d6693;
        opacity: 0.39;
      }
    </style>
    <clipPath id="clip-path">
      <rect id="Rectangle_62" data-name="Rectangle 62" class="cls-1" width="599" height="304" transform="translate(1342.537 1393)"/>
    </clipPath>
  </defs>
  <g id="Mask_Group_4" data-name="Mask Group 4" class="cls-2" transform="translate(-1342.537 -1393)">
    <g id="ProjStronInt" transform="translate(1343 1419.829)">
      <g id="Warstwa_8" transform="translate(56.394)">
        <rect id="Rectangle_63" data-name="Rectangle 63" class="cls-3" width="335.486" height="188.962" rx="13.927" transform="translate(0 13.057)"/>
        <rect id="Rectangle_64" data-name="Rectangle 64" class="cls-4" width="335.486" height="188.962" rx="13.927" transform="translate(14.824)"/>
        <g id="Group_46" data-name="Group 46" transform="translate(29.393 5.668)">
          <rect id="Rectangle_65" data-name="Rectangle 65" class="cls-5" width="267.303" height="9.767" rx="3.78" transform="translate(0 0.5)"/>
          <text id="WWW" class="cls-6" transform="translate(7.084 8)"><tspan class="cls-7" x="0" y="0">WW</tspan><tspan y="0">W</tspan></text>
        </g>
        <path id="Path_63" data-name="Path 63" class="cls-5" d="M1506.934,700.327l3.111-3.111a1.019,1.019,0,0,0-1.441-1.442l-3.111,3.111-3.111-3.111a1.019,1.019,0,0,0-1.442,1.442l3.111,3.111-3.111,3.111a1.019,1.019,0,0,0,1.442,1.442l3.111-3.111,3.111,3.111a1.02,1.02,0,1,0,1.442-1.442l-3.111-3.111Z" transform="translate(-1170.007 -689.275)"/>
        <path id="Line_12" data-name="Line 12" class="cls-5" d="M10.639,1.258H0A1.258,1.258,0,0,1-1.258,0,1.258,1.258,0,0,1,0-1.258H10.639A1.258,1.258,0,0,1,11.9,0,1.258,1.258,0,0,1,10.639,1.258Z" transform="translate(311.291 11.051)"/>
      </g>
      <g id="Warstwa_7" transform="translate(0 31.94)">
        <path id="Path_66" data-name="Path 66" class="cls-3" d="M1232.493,737l-31.376,150.9a.969.969,0,0,0,.748,1.144l184.111,38.287a.965.965,0,0,0,.948-1.55L1234.19,736.594a.965.965,0,0,0-1.7.412Zm18.526,60.812,71.424,88.47a2.952,2.952,0,0,1-2.9,4.742l-86.1-17.9a2.954,2.954,0,0,1-2.287-3.49l14.672-70.568a2.951,2.951,0,0,1,5.187-1.252Z" transform="translate(-1201.097 -709.311)"/>
        <g id="Group_49" data-name="Group 49" transform="translate(124.864)">
          <g id="Group_47" data-name="Group 47" transform="translate(69.045 29.495)">
            <path id="Path_67" data-name="Path 67" class="cls-8" d="M1415.013,775.411a38.839,38.839,0,0,1-8.081,23.777h-7.068V744.534a38.953,38.953,0,0,1,15.149,30.872Z" transform="translate(-1336.954 -736.382)"/>
            <path id="Path_68" data-name="Path 68" class="cls-9" d="M1399.864,786.834h7.068a39.441,39.441,0,0,1-7.068,7.095Z" transform="translate(-1336.954 -724.028)"/>
            <path id="Path_69" data-name="Path 69" class="cls-8" d="M1412.258,786.834v7.095a39.029,39.029,0,0,1-54.828-7.095Z" transform="translate(-1349.348 -724.028)"/>
            <path id="Path_70" data-name="Path 70" class="cls-8" d="M1405.251,768.39v23.832H1381.42A23.827,23.827,0,0,0,1405.251,768.39Z" transform="translate(-1342.342 -729.415)"/>
            <path id="Path_71" data-name="Path 71" class="cls-10" d="M1414.084,746.376V777.2a23.832,23.832,0,1,0-23.832,23.832h-31a39.029,39.029,0,0,1,54.829-54.65Z" transform="translate(-1351.175 -738.225)"/>
          </g>
          <g id="Group_48" data-name="Group 48">
            <path id="Path_72" data-name="Path 72" class="cls-11" d="M1492.368,799.639H1297.737a1,1,0,0,1,0-2h194.632a1,1,0,0,1,0,2Z" transform="translate(-1297.737 -691.085)"/>
            <path id="Path_73" data-name="Path 73" class="cls-11" d="M1510.019,739.22h-210.94a1,1,0,0,1,0-2h210.94a1,1,0,0,1,0,2Z" transform="translate(-1297.344 -708.73)"/>
            <path id="Path_74" data-name="Path 74" class="cls-11" d="M1411.589,842.817a1,1,0,0,1-1-1V726.978a1,1,0,0,1,2,0V841.817A1,1,0,0,1,1411.589,842.817Z" transform="translate(-1264.485 -712.014)"/>
            <path id="Path_75" data-name="Path 75" class="cls-11" d="M1399.864,822.8a1,1,0,0,1-1-1V792.326a1,1,0,0,1,2,0V821.8A1,1,0,0,1,1399.864,822.8Z" transform="translate(-1267.909 -692.929)"/>
            <path id="Path_76" data-name="Path 76" class="cls-11" d="M1399.864,750.869a1,1,0,0,1-1-1v-23.6a1,1,0,0,1,2,0v23.6A1,1,0,0,1,1399.864,750.869Z" transform="translate(-1267.909 -712.222)"/>
            <path id="Path_77" data-name="Path 77" class="cls-11" d="M1363.6,787.834H1336.27a1,1,0,0,1,0-2H1363.6a1,1,0,0,1,0,2Z" transform="translate(-1286.482 -694.532)"/>
            <path id="Path_78" data-name="Path 78" class="cls-11" d="M1430.938,787.834h-25.6a1,1,0,0,1,0-2h25.6a1,1,0,0,1,0,2Z" transform="translate(-1266.312 -694.532)"/>
            <path id="Path_79" data-name="Path 79" class="cls-11" d="M1351.17,838.866a1,1,0,0,1-1-1V715.4a1,1,0,0,1,2,0v122.47A1,1,0,0,1,1351.17,838.866Z" transform="translate(-1282.131 -715.396)"/>
            <path id="Path_80" data-name="Path 80" class="cls-11" d="M1359.252,802.031a1,1,0,0,1-.793-.39,40.025,40.025,0,0,1,56.234-56.05,1,1,0,1,1-1.225,1.581,37.647,37.647,0,0,0-23.268-7.948,38.072,38.072,0,0,0-38.029,38.029,37.664,37.664,0,0,0,7.874,23.168,1,1,0,0,1-.792,1.61Z" transform="translate(-1282.131 -708.729)"/>
            <path id="Path_81" data-name="Path 81" class="cls-11" d="M1406.931,800.183a1,1,0,0,1-.792-1.61,38.029,38.029,0,0,0-5.276-51.93v28.714a1,1,0,0,1-2,0V742.495l1.612,1.248a40.169,40.169,0,0,1,11.314,13.746,39.819,39.819,0,0,1,3.125,8.566,39.956,39.956,0,0,1-7.191,33.738A1,1,0,0,1,1406.931,800.183Z" transform="translate(-1267.909 -706.887)"/>
            <path id="Path_82" data-name="Path 82" class="cls-11" d="M1388.377,803.086a40.21,40.21,0,0,1-9.385-1.107,39.891,39.891,0,0,1-16.129-8.08,40.305,40.305,0,0,1-6.227-6.456l-1.238-1.61h33.028a1,1,0,0,1,0,2h-28.9a38.03,38.03,0,0,0,52.116,5.3,1,1,0,1,1,1.225,1.581,39.849,39.849,0,0,1-24.493,8.367Z" transform="translate(-1280.303 -694.532)"/>
            <path id="Path_83" data-name="Path 83" class="cls-11" d="M1406.251,793.221h-24.832a1,1,0,0,1,0-2h22.832V768.39a1,1,0,0,1,2,0Z" transform="translate(-1273.296 -699.919)"/>
            <path id="Path_84" data-name="Path 84" class="cls-11" d="M1398.864,785.834h10.1l-1.238,1.61a40.441,40.441,0,0,1-7.247,7.275l-1.613,1.253Zm5.965,2h-3.965v3.981A38.461,38.461,0,0,0,1404.829,787.834Z" transform="translate(-1267.909 -694.532)"/>
            <path id="Path_85" data-name="Path 85" class="cls-11" d="M1386.806,798.608a24.757,24.757,0,1,1,9.667-1.951A24.685,24.685,0,0,1,1386.806,798.608Zm0-47.663a22.832,22.832,0,1,0,22.832,22.832A22.857,22.857,0,0,0,1386.806,750.945Z" transform="translate(-1278.683 -705.306)"/>
          </g>
        </g>
        <path id="Path_86" data-name="Path 86" class="cls-11" d="M1244.831,725.447l-31.376,150.9a.969.969,0,0,0,.748,1.144l184.111,38.287a.965.965,0,0,0,.949-1.55L1246.527,725.046a.965.965,0,0,0-1.7.412Zm18.525,60.812,71.425,88.47a2.952,2.952,0,0,1-2.9,4.742l-86.1-17.9a2.954,2.954,0,0,1-2.287-3.49l14.672-70.568a2.951,2.951,0,0,1,5.187-1.252Z" transform="translate(-1197.494 -712.683)"/>
      </g>
      <path id="Path_87" data-name="Path 87" class="cls-12" d="M438.376,10.382h0c-2.678-5.138-7.855-3.325-12.993-.647L257.727,92.742a10.47,10.47,0,0,0-3.894,3.507c-6.363-1.093-14.725-1.5-23.13,4.049-11.373,7.506-7.8,20.41-25.78,28.47-8.389,3.759,24.815,5.495,36.421-.667,9.548-5.068,12.373-13.756,18.061-16.058a10.464,10.464,0,0,0,8.025-.7L432.292,21.283c5.138-2.678,8.758-5.766,6.08-10.9Z" transform="translate(197.849 -182.254) rotate(43)"/>
      <path id="Path_88" data-name="Path 88" class="cls-13" d="M441.678,3.271h0C439-1.868,433.823-.054,428.685,2.623L261.029,85.63a10.469,10.469,0,0,0-3.894,3.507c-6.363-1.093-14.725-1.5-23.13,4.049-11.373,7.506-7.8,20.41-25.78,28.47-8.389,3.759,24.815,5.495,36.421-.666,9.548-5.068,12.373-13.756,18.061-16.058a10.464,10.464,0,0,0,8.025-.7L435.594,14.171c5.138-2.678,8.757-5.766,6.08-10.9Z" transform="translate(204.451 -183.904) rotate(43)"/>
      <path id="Path_89" data-name="Path 89" class="cls-14" d="M206.88,122.781s16.325-4.956,25.106-16.426,23.25-10.435,29.45-13.845S440.248,1.343,440.248,1.343s-2.375-3.805-12.059,1.523S261.324,85.481,261.324,85.481a11.61,11.61,0,0,0-4.193,3.654s-17.585-4.3-27.989,8.517-2.871,13.512-21.77,24.471a1.3,1.3,0,0,0-.488.663Z" transform="translate(204.447 -183.9) rotate(43)"/>
    </g>
  </g>
</svg>
